<svg width="111" height="63" viewBox="0 0 111 63" xmlns="http://www.w3.org/2000/svg" xmlns:xlink="http://www.w3.org/1999/xlink"><title>icon-clubs-connect</title><defs><path id="a" d="M0 .043h111V63H0V.043z"/><path id="c" d="M0 .043h111V63H0V.043z"/></defs><g fill="none" fill-rule="evenodd"><path d="M75.278 23.664a2 2 0 1 1 .002 4 2 2 0 0 1-.002-4M37.575 33.15a2 2 0 1 1 0 4 2 2 0 0 1 0-4M12.924 1.044c3.286 0 5.96 2.6 5.96 5.795 0 3.194-2.674 5.793-5.96 5.793-3.288 0-5.963-2.598-5.963-5.794 0-3.196 2.676-5.796 5.964-5.796m0 12.59c3.838 0 6.96-3.05 6.96-6.796 0-3.747-3.122-6.795-6.96-6.795-3.84 0-6.963 3.048-6.963 6.795s3.125 6.795 6.964 6.795" fill="#3379AC"/><mask id="b" fill="#fff"><use xlink:href="#a"/></mask><path d="M24.847 36.044c0 1.444-.763 2.468-1.52 2.842-.37.185-.927.312-1.532-.048V24.83a.5.5 0 0 0-1 0v34.102c0 1.69-1.42 3.068-3.162 3.068-1.743 0-3.162-1.377-3.162-3.068v-19.83a.5.5 0 0 0-.5-.5h-2.093a.5.5 0 0 0-.5.5v19.83c0 1.69-1.42 3.068-3.164 3.068-1.742 0-3.16-1.377-3.16-3.068v-34.1a.5.5 0 0 0-1 0v13.974c-.54.24-1.208.21-1.766-.095C1.457 38.26 1 37.31 1 36.045V18.586c0-1.64.607-2.25 2.238-2.25h18.404c2.547 0 3.206.462 3.206 2.25v17.458zm-3.205-20.71H3.238C1.058 15.335 0 16.4 0 18.587v17.458c0 1.625.66 2.917 1.808 3.544a3.06 3.06 0 0 0 2.245.274v19.07C4.053 61.175 5.92 63 8.213 63c2.296 0 4.164-1.825 4.164-4.068v-19.33h1.094v19.33c0 2.243 1.868 4.068 4.163 4.068s4.162-1.825 4.162-4.068v-19a2.55 2.55 0 0 0 1.978-.15c1.24-.614 2.074-2.116 2.074-3.738V18.586c0-3.002-1.988-3.25-4.205-3.25z" fill="#3379AC" mask="url(#b)"/><path d="M98.076 1.044c3.286 0 5.96 2.6 5.96 5.795 0 3.194-2.675 5.793-5.96 5.793-3.288 0-5.963-2.598-5.963-5.794 0-3.196 2.675-5.796 5.963-5.796m0 12.59c3.837 0 6.96-3.05 6.96-6.796 0-3.747-3.122-6.795-6.96-6.795-3.84 0-6.963 3.048-6.963 6.795s3.124 6.795 6.963 6.795" fill="#3379AC"/><mask id="d" fill="#fff"><use xlink:href="#c"/></mask><path d="M110 36.044c0 1.444-.764 2.468-1.52 2.842-.374.185-.928.312-1.534-.048V24.83a.5.5 0 0 0-1 0v34.102c0 1.69-1.418 3.068-3.16 3.068-1.745 0-3.164-1.377-3.164-3.068v-19.83a.5.5 0 0 0-.5-.5h-2.094a.5.5 0 0 0-.5.5v19.83c0 1.69-1.42 3.068-3.163 3.068-1.743 0-3.16-1.377-3.16-3.068v-34.1a.5.5 0 0 0-1 0v13.974c-.542.24-1.208.21-1.766-.095-.83-.452-1.288-1.4-1.288-2.666V18.586c0-1.64.606-2.25 2.236-2.25h18.406c2.547 0 3.206.462 3.206 2.25v17.458zm-3.206-20.71H88.388c-2.177 0-3.236 1.064-3.236 3.252v17.458c0 1.625.66 2.917 1.808 3.545.696.38 1.514.47 2.244.272v19.07c0 2.243 1.866 4.068 4.16 4.068 2.297 0 4.164-1.825 4.164-4.068v-19.33h1.094v19.33c0 2.243 1.867 4.068 4.163 4.068 2.295 0 4.16-1.825 4.16-4.068v-19c.643.217 1.33.17 1.98-.15 1.24-.614 2.074-2.116 2.074-3.738V18.586c0-3.002-1.99-3.25-4.206-3.25z" fill="#3379AC" mask="url(#d)"/><path d="M74.162 25.664a.5.5 0 0 0-.5-.5H35.575a.5.5 0 0 0 0 1h38.087a.5.5 0 0 0 .5-.5M77.278 34.65H38.614a.5.5 0 0 0 0 1h38.664a.5.5 0 0 0 0-1" fill="#3379AC"/></g></svg>