<svg width="125" height="146" viewBox="0 0 125 146" xmlns="http://www.w3.org/2000/svg"><title>MakerPartyLogo 2</title><g fill="none" fill-rule="evenodd"><path d="M122.124 34.03L63.98.464c-1.07-.617-2.82-.617-3.89 0L1.945 34.03C.876 34.65 0 36.166 0 37.403v67.138c0 1.236.876 2.753 1.946 3.37l15.96 9.214.384 28.284 22.214-15.236 19.585 11.306c1.07.618 2.82.618 3.89 0l58.14-33.567c1.07-.617 1.946-2.134 1.946-3.37l.004-67.138c0-1.237-.876-2.753-1.946-3.37" fill="#00A6A5"/><path d="M67.07 60.932l1.413-.843 3.484 6.74h5.38L71.884 57.1l5.56-7.902h-5.21L68.53 54.6c-.73 1.03-1.22 1.78-1.46 2.255v-7.66h-4.79v17.636h4.79v-5.898M84.02 62.948v-3.33H89.3v-3.824H84.02V53.02h5.704v-3.824h-10.47V66.83h10.47V62.95H84.02zM68.228 74.525h4.31v13.74h4.76v-13.74h4.296v-3.897H68.228v3.897M54.547 49.124h-1.77l-1.082 4.253a111.252 111.252 0 0 0 .85 3.347l.76 2.893h-3.2l-.996 3.91h5.186l.867 3.304h5.21l-5.826-17.706M51.387 52.093l.012-.064v.01l.743-2.916H48.19L42.438 66.83h5.198l3.752-14.737M90.186 76.675l-2.79-6.047H82.21l5.666 10.635 2.312-4.588M93.923 70.628L88.01 82.36v5.905h4.8v-6.89l5.806-10.747h-4.693M41.806 74.043c.048-.23.086-.425.113-.58l.014.08.76-2.988h-3.982l-5.754 17.71h5.228l3.62-14.222M45.068 70.555h-1.74l-1.098 4.32a100.202 100.202 0 0 0 .836 3.28l.76 2.895h-3.17l-.994 3.907h5.153l.87 3.308h5.21l-5.827-17.71M97.18 49.196h-4.367V66.83h4.3l.068-17.634M102.79 59.148c1.994-1.12 2.99-2.7 2.99-4.742 0-3.475-2.395-5.21-7.19-5.21h-.795l-.014 3.607h.738c1.633 0 2.45.604 2.45 1.822 0 1.47-.835 2.207-2.498 2.207h-.705l-.014 3.582h1.035l3.74 6.417h5.403l-5.138-7.682M34.185 49.196l-3.58 12.434 1.328 5.2h.744l3.56-12.677h.107c-.095 1.913-.15 3.116-.163 3.607-.01.49-.016.937-.016 1.34v7.73h4.38V49.197h-6.36M28.142 66.83H31.3l-4.504-17.634h-6.338V66.83h4.222v-7.66c0-1.197-.083-2.878-.252-5.042h.11L28.14 66.83M57.4 70.628h-4.6v17.637h4.534l.067-17.637M62.774 80.58c1.996-1.12 2.993-2.7 2.993-4.742 0-3.473-2.397-5.21-7.187-5.21h-.566L58 74.235h.506c1.633 0 2.45.606 2.45 1.82 0 1.472-.833 2.21-2.498 2.21h-.472l-.014 3.58h.8l3.738 6.42h5.405l-5.14-7.686M24.954 70.628h-4.496v17.637h4.427l.07-17.637M31.58 72.087c-1.118-.973-2.79-1.46-5.018-1.46h-.992l-.015 3.85h.9c1.316 0 1.978.593 1.978 1.784 0 .708-.212 1.263-.634 1.664-.423.403-.992.605-1.708.605h-.553l-.016 3.88h1.038c2.14 0 3.79-.534 4.95-1.61 1.163-1.072 1.747-2.595 1.747-4.564 0-1.792-.56-3.177-1.68-4.15" fill="#FFE611"/></g></svg>